<?xml version="1.0" standalone="no"?>
<!DOCTYPE svg PUBLIC "-//W3C//DTD SVG 1.1//EN" "http://www.w3.org/Graphics/SVG/1.1/DTD/svg11.dtd" >
<svg xmlns="http://www.w3.org/2000/svg">
<metadata>
Created by FontForge 20120731 at Wed May 10 09:30:57 2017
 By admin
</metadata>
<defs>
<font id="iconfont" horiz-adv-x="1024" >
  <font-face 
    font-family="iconfont"
    font-weight="500"
    font-stretch="normal"
    units-per-em="1024"
    panose-1="2 0 6 3 0 0 0 0 0 0"
    ascent="896"
    descent="-128"
    x-height="792"
    bbox="-6 -224 1358 909"
    underline-thickness="0"
    underline-position="0"
    unicode-range="U+0078-E881"
  />
<missing-glyph 
 />
    <glyph glyph-name=".notdef" 
 />
    <glyph glyph-name=".notdef" 
 />
    <glyph glyph-name=".null" horiz-adv-x="0" 
 />
    <glyph glyph-name="nonmarkingreturn" horiz-adv-x="341" 
 />
    <glyph glyph-name="x" unicode="x" horiz-adv-x="1001" 
d="M281 543q-27 -1 -53 -1h-83q-18 0 -36.5 -6t-32.5 -18.5t-23 -32t-9 -45.5v-76h912v41q0 16 -0.5 30t-0.5 18q0 13 -5 29t-17 29.5t-31.5 22.5t-49.5 9h-133v-97h-438v97zM955 310v-52q0 -23 0.5 -52t0.5 -58t-10.5 -47.5t-26 -30t-33 -16t-31.5 -4.5q-14 -1 -29.5 -0.5
t-29.5 0.5h-32l-45 128h-439l-44 -128h-29h-34q-20 0 -45 1q-25 0 -41 9.5t-25.5 23t-13.5 29.5t-4 30v167h911zM163 247q-12 0 -21 -8.5t-9 -21.5t9 -21.5t21 -8.5q13 0 22 8.5t9 21.5t-9 21.5t-22 8.5zM316 123q-8 -26 -14 -48q-5 -19 -10.5 -37t-7.5 -25t-3 -15t1 -14.5
t9.5 -10.5t21.5 -4h37h67h81h80h64h36q23 0 34 12t2 38q-5 13 -9.5 30.5t-9.5 34.5q-5 19 -11 39h-368zM336 498v228q0 11 2.5 23t10 21.5t20.5 15.5t34 6h188q31 0 51.5 -14.5t20.5 -52.5v-227h-327z" />
    <glyph glyph-name="gouwuchekong" unicode="&#xe61d;" horiz-adv-x="1028" 
d="M333 105q19 0 36.5 -7t30.5 -19.5t20.5 -30t7.5 -37t-7.5 -37t-20.5 -30.5t-30.5 -20.5t-36.5 -7.5q-21 0 -38 7.5t-30 20.5t-20.5 30.5t-7.5 37t7.5 37t20.5 30t30 19.5t38 7zM758.5 103q19.5 0 37.5 -7t31 -20t20.5 -30t7.5 -36.5t-7.5 -37t-20.5 -30.5t-31 -20.5
t-37.5 -7.5t-36.5 7.5t-30 20.5t-20.5 30.5t-7.5 37t7.5 36.5t20.5 30t30 20t36.5 7zM931 685q28 0 44 -7.5t23 -19t6.5 -24t-4 -22t-13.5 -38t-22 -63t-23.5 -68t-18.5 -53.5q-14 -41 -34 -57t-49 -16h-36h-66h-86h-96h-254l14 -92h518q49 0 49 -42q0 -20 -10 -35.5
t-38 -14.5h-50h-94h-119h-119h-100h-55q-20 0 -34 9.5t-23.5 24t-15 32t-8.5 32.5q-1 7 -5.5 30.5t-11 58.5t-15 78.5t-16.5 87.5q-19 104 -44 231h-77q-15 0 -25.5 7.5t-17 18.5t-9 23t-2.5 22q0 21 14 34.5t37 12.5h103q21 0 33.5 -6.5t19.5 -15.5t10 -19t5 -17
q2 -8 4 -23l4 -30q3 -18 6 -39h701zM893 594l-641 2l36 -185l535 -1z" />
    <glyph glyph-name="gouwucheman" unicode="&#xe61e;" 
d="M346 89q20 0 37 -7t30 -20t20.5 -30.5t7.5 -37t-7.5 -36.5t-20.5 -30t-30 -20.5t-37 -7.5t-37.5 7.5t-30.5 20.5t-20.5 30t-7.5 36.5t7.5 37t20.5 30.5t30.5 20t37.5 7zM772.5 87q19.5 0 37 -7t30.5 -20t20.5 -30.5t7.5 -37t-7.5 -36.5t-20.5 -30t-30.5 -20.5t-37 -7.5
t-37 7.5t-30.5 20.5t-20.5 30t-7.5 36.5t7.5 37t20.5 30.5t30.5 20t37 7zM944 669q29 0 45 -8t22.5 -19t6 -24t-3.5 -22t-13.5 -38t-22 -63t-23.5 -68t-19 -53q-13 -41 -33 -57t-50 -16h-36h-65h-86h-97h-254l15 -92h517q49 0 49 -42q0 -21 -9.5 -35.5t-38.5 -14.5h-49h-94
h-119h-120h-99h-56q-20 0 -34 9t-23 24t-15 32.5t-9 32.5q-1 6 -5.5 29.5t-11 59t-15 79t-16.5 87.5q-19 103 -44 230h-77q-15 0 -25 8t-17 18.5t-9.5 23t-2.5 22.5q0 21 14 34t37 13h22h21h26h35q20 0 32.5 -6t19.5 -15.5t10 -19.5t5 -17q2 -8 4.5 -23t4.5 -30q3 -19 6 -39
h700zM867 701h-374l135 136q23 23 51.5 23.5t51.5 -22.5z" />
    <glyph glyph-name="dianhua" unicode="&#xe608;" 
d="M704 172q-24 -24 -45 -59.5t-38 -52t-45 -16.5q-23 0 -46.5 9.5t-51 31.5t-45 38.5t-49.5 48.5t-48.5 49.5t-38.5 45t-31.5 51t-9.5 46.5q0 28 16.5 45t52 38t59.5 45q30 30 -6 93t-95 113t-91 50q-28 0 -76 -48t-82 -96l-34 -48q0 -95 81 -256.5t175 -255.5t255.5 -175
t256.5 -81q8 5 21 14t46 34.5t58 48.5t46 50t21 45q0 32 -50 91t-113 95t-93 6z" />
    <glyph glyph-name="konggouwuche" unicode="&#xe624;" 
d="M328 28q19 0 36 -7t29.5 -19.5t20 -29.5t7.5 -36t-7.5 -36t-20 -29.5t-29.5 -20t-36 -7.5q-20 0 -37 7.5t-29.5 20t-20 29.5t-7.5 36t7.5 36t20 29.5t29.5 19.5t37 7zM744 26q19 0 36.5 -7t30 -19.5t20 -29.5t7.5 -36t-7.5 -36t-20 -29.5t-30 -20t-36.5 -7.5t-36 7.5
t-29.5 20t-20 29.5t-7.5 36t7.5 36t20 29.5t29.5 19.5t36 7zM912 594q28 0 43.5 -7.5t22 -18.5t6 -23.5t-3.5 -21.5t-13 -37t-21.5 -61.5t-23 -66.5t-18.5 -52q-13 -40 -32.5 -55.5t-48.5 -15.5h-525l14 -90h505q48 0 48 -41q0 -20 -9.5 -35t-37.5 -14h-524q-20 0 -33.5 9
t-22.5 23.5t-14.5 31.5t-8.5 32q-1 6 -5.5 29t-11 57.5t-14.5 77t-16 85.5q-19 101 -43 225h-75q-15 0 -25 7.5t-16.5 18t-9 22.5t-2.5 22q0 20 13.5 33t36.5 12h101q20 0 32 -6t19 -15t10 -18.5t5 -16.5q2 -8 4 -22.5t4 -29.5q3 -18 6 -38h684v0zM875 505l-626 2l35 -181
l523 -1z" />
    <glyph glyph-name="liebiao" unicode="&#xe605;" 
d="M969 728h-625q-24 0 -40.5 -16.5t-16.5 -40.5v-28q0 -24 16.5 -40.5t40.5 -16.5h625q23 0 40 16.5t17 40.5v28q0 24 -17 40.5t-40 16.5zM969 359h-625q-24 0 -40.5 -17t-16.5 -40v-29q0 -23 16.5 -39.5t40.5 -16.5h625q23 0 40 16.5t17 39.5v29q0 23 -17 40t-40 17z
M969 -11h-625q-24 0 -40.5 -16.5t-16.5 -40.5v-28q0 -24 16.5 -40.5t40.5 -16.5h625q23 0 40 16.5t17 40.5v28q0 24 -17 40.5t-40 16.5zM88 728h-29q-23 0 -39.5 -16.5t-16.5 -40.5v-28q0 -24 16.5 -40.5t39.5 -16.5h29q23 0 40 16.5t17 40.5v28q0 24 -17 40.5t-40 16.5z
M88 -11h-29q-23 0 -39.5 -16.5t-16.5 -40.5v-28q0 -24 16.5 -40.5t39.5 -16.5h29q23 0 40 16.5t17 40.5v28q0 24 -17 40.5t-40 16.5zM88 359h-29q-23 0 -39.5 -17t-16.5 -40v-29q0 -23 16.5 -39.5t39.5 -16.5h29q23 0 40 16.5t17 39.5v29q0 23 -17 40t-40 17z" />
    <glyph glyph-name="gouwuche" unicode="&#xe625;" 
d="M733 -108q-20 0 -39 8t-31 21q-14 14 -21 31q-8 18 -8 38t8 38q7 17 21 31q10 10 24 17h-268q11 -6 21 -15q15 -15 22 -32q7 -18 7 -37.5t-8 -38.5q-6 -16 -21 -31q-14 -13 -31 -21q-19 -8 -39 -8q-22 0 -39 9q-18 7 -31 20q-15 15 -22 32q-7 18 -7 37.5t7 38.5
q7 16 22 31q11 10 23 17q-12 2 -22 9q-15 10 -25 25q-8 12 -14 31q-6 20 -8 30l-41 215l-35 179h-51q-19 0 -33 10q-11 8 -18 20q-8 14 -11 26q-2 13 -2 22q0 26 17 42q18 16 44 16h89q22 0 36 -7q13 -7 22 -18t12 -22l5 -15q1 -5 3 -18l7 -47h582q28 0 45 -8q19 -9 28 -23
q8 -14 7 -30q-1 -14 -4 -23l-53 -152q-9 -27 -12 -35q-14 -40 -35 -57q-22 -17 -54 -17h-437l7 -41h425q19 0 32 -6t18.5 -15.5t7.5 -17t2 -15.5q0 -22 -12 -40q-13 -20 -47 -20h-18q13 -6 24 -17q14 -14 21 -31q8 -18 8 -38t-8 -38q-7 -17 -21 -31q-13 -14 -32 -21
q-18 -8 -39 -8zM733 51q-13 0 -25 -5q-11 -4 -19 -12q-9 -10 -14 -20q-5 -12 -5 -24.5t5 -23.5t14 -20q7 -8 20 -13q24 -11 49 0q12 5 20 13q10 9 14 20q5 11 5 23.5t-5 24.5q-4 10 -14 20q-8 8 -19 12q-13 5 -26 5zM370 53q-14 0 -25 -5q-11 -4 -20 -13t-13 -19
q-6 -12 -6 -24.5t5 -23.5t14 -20q9 -8 20 -14q24 -11 49 0q12 6 21 14q9 9 13 19q5 12 5 24.5t-5 23.5q-4 11 -13 20t-20 13q-13 5 -25 5zM124 667q-12 0 -19 -7q-6 -5 -6 -15q0 -5 2 -15q1 -6 5 -14q4 -6 10 -10q4 -3 11 -3h80l82 -423q2 -9 7 -26q5 -14 10 -22
q7 -10 15 -15q7 -5 19 -5h458q15 0 17 4q6 9 6 20q0 6 -1 9t-6.5 6t-16.5 3h-455l-20 113h480q20 0 32 10q13 10 23 39q2 8 12 35l3 10l50 142q2 5 2 14q1 5 -2 10q-3 4 -12 9q-10 4 -30 4h-613l-12 78q-1 10 -2 13l-4 14q-2 6 -6 11q-3 4 -10 8q-7 3 -20 3h-89z" />
    <glyph glyph-name="youxiang" unicode="&#xe61f;" 
d="M975 386q0 25 -20 39l-406 297q-13 10 -29 10t-29 -10l-406 -297q-8 -5 -13 -15q-3 -2 -5 -5q-3 -6 -1 -13q0 -1 -0.5 -3t-0.5 -3v-493q0 -20 14.5 -34.5t34.5 -14.5h812q20 0 34.5 14.5t14.5 34.5v493zM513 693q3 2 7 2t7 -2l399 -292l-406 -232l-407 232zM934.5 -115.5
q-3.5 -3.5 -8.5 -3.5h-812q-5 0 -8.5 3.5t-3.5 8.5v472l409 -233q4 -2 9 -2t9 2l409 234v-473q0 -5 -3.5 -8.5z" />
    <glyph glyph-name="weixin" unicode="&#xe603;" 
d="M669 495q14 0 30 -2q-20 95 -110.5 157.5t-206.5 62.5q-130 0 -222 -77.5t-92 -189.5q0 -124 126 -212l-31 -94l109 55q80 -16 110 -16q14 0 30 1q-10 33 -10 66q0 103 77.5 176t189.5 73zM500 580q18 0 28.5 -11t10.5 -28.5t-10.5 -28.5t-28.5 -11t-32.5 11.5
t-14.5 28.5t14.5 28t32.5 11zM280 501q-18 0 -32.5 11.5t-14.5 28.5t14.5 28t32.5 11t29 -11t11 -28.5t-11 -28.5t-29 -11zM956 250q0 93 -80 160.5t-187 67.5q-112 0 -189.5 -67t-77.5 -161.5t77.5 -161t189.5 -66.5q31 0 94 16l86 -47l-23 78q110 83 110 181zM602 289
q-11 0 -21 10t-10 21.5t10 21.5t21 10q17 0 28.5 -9.5t11.5 -22t-11.5 -22t-28.5 -9.5zM775 289q-12 0 -21.5 10t-9.5 21.5t9.5 21.5t21.5 10q17 0 28 -9.5t11 -22t-11 -22t-28 -9.5z" />
    <glyph glyph-name="gouwuche1" unicode="&#xe63b;" 
d="M779 -21q-22 0 -37.5 -16t-15.5 -38t15.5 -37.5t37.5 -15.5t37.5 15.5t15.5 37.5t-15.5 38t-37.5 16zM405 -21q-22 0 -38 -16t-16 -38t16 -37.5t38 -15.5t37.5 15.5t15.5 37.5t-15.5 38t-37.5 16zM966 567q0 16 -5 27t-9 16t-15 7.5t-12.5 2.5h-11.5h-588l-27 54
q-30 54 -100 80q-67 25 -99 -2q-20 -17 -15 -52q5 -11 17.5 -11.5t26.5 3.5t32 0.5t31 -18.5q19 -23 27.5 -89t14 -195.5t12.5 -196.5q4 -47 13.5 -80t18.5 -48t21 -23.5t17 -9t9 -0.5h1q41 -1 142.5 -1t229.5 0.5t162 0.5q33 15 41 41t-11.5 46t-56.5 20h-481v54h535
q27 0 44.5 6.5t24.5 19.5t9 24.5t2 29.5v108v113.5v72.5zM886 380q0 -39 -10.5 -60t-40.5 -21h-430q-25 0 -38.5 40.5t-14.5 80.5l-1 40q0 33 9.5 43t41.5 10h433q30 0 40.5 -20.5t10.5 -59.5v-53v0z" />
    <glyph glyph-name="circularorder" unicode="&#xe666;" 
d="M512 780q-98 0 -186.5 -38t-153 -102.5t-102.5 -153t-38 -186.5t38 -186.5t102.5 -153t153 -102.5t186.5 -38t186.5 38t153 102.5t102.5 153t38 186.5t-38 186.5t-102.5 153t-153 102.5t-186.5 38zM426 -16q-22 0 -38 16t-16 38q0 23 16 38.5t38 15.5t38 -15.5t16 -38
t-16 -38.5t-38 -16zM707.5 -16q-22.5 0 -38 16t-15.5 38q0 23 15.5 38.5t38 15.5t38.5 -15.5t16 -38.5q0 -22 -16 -38t-38.5 -16zM776 147q-3 -7 -11.5 -12.5t-16.5 -5.5h-359q-8 0 -17 5t-13 13l-152 253q-4 7 -1 12h-23h-16h-8h-40q-12 0 -20.5 8.5t-8.5 20.5v11
q0 11 8.5 19.5t20.5 8.5h40h39h55l40 -63h589q9 0 12 -5.5t0 -12.5z" />
    <glyph glyph-name="fankui" unicode="&#xe609;" 
d="M721 256q-8 0 -14 -5.5t-6 -13.5v-230q0 -4 -2.5 -6.5t-6.5 -2.5h-477q-4 0 -7 2.5t-3 6.5v548q0 4 3 7t7 3h432q8 0 13.5 5.5t5.5 13.5t-5.5 13.5t-13.5 5.5h-461q-8 0 -13.5 -5.5t-5.5 -13.5v-605q0 -8 5.5 -14t13.5 -6h535q8 0 13.5 6t5.5 14v258q0 8 -5.5 13.5
t-13.5 5.5zM540 129l383 384l-132 132l-384 -384zM869 513l-329 -330l-78 78l329 330zM379 246v-146h146v39h-108v107h-38z" />
    <glyph glyph-name="chongzhi1" unicode="&#xe696;" 
d="M960 -64h-894q-27 0 -45.5 19.5t-18.5 46.5v593q0 28 18.5 47t45.5 19h894q27 0 45.5 -19t18.5 -47v-593q0 -27 -18.5 -46.5t-45.5 -19.5v0zM768 332h-511v-66h511v66v0zM768 167h-511v-66h511v66v0zM928 562h-128v-131h128v131v0z" />
    <glyph glyph-name="cogs3" unicode="&#xe604;" horiz-adv-x="1515" 
d="M876 95q0 6 -4 12q-32 38 -52 65q12 24 19 44l88 13q5 1 9 6.5t4 11.5v105q0 7 -4 11.5t-9 5.5l-87 14q-7 19 -20 46q9 13 26 35q18 22 24 31q4 5 4 10q0 16 -82 92q-6 4 -12 4q-7 0 -12 -4l-67 -50q-24 12 -43 17l-13 88q-1 5 -6 9.5t-11 4.5h-107q-13 0 -17 -14
q-7 -26 -13 -88q-24 -8 -44 -18l-66 51q-5 4 -12 4q-10 0 -44.5 -33.5t-47.5 -50.5q-4 -5 -4 -12q0 -5 4 -11q32 -38 52 -66q-12 -23 -18 -43l-89 -14q-5 0 -9 -5.5t-4 -11.5v-106q0 -6 4 -11t10 -5l86 -14q7 -22 20 -47q-9 -12 -26.5 -34.5t-23.5 -30.5q-4 -6 -4 -11
q0 -15 82 -91q6 -5 12 -5q8 0 12 4l67 51q24 -12 43 -18l13 -87q1 -6 6 -10t11 -4h107q13 0 17 13q7 27 13 89q23 7 44 18l66 -52q5 -4 12 -4q11 0 45 34t47 51q4 4 4 11zM678 197q-43 -43 -103.5 -43t-103.5 43t-43 103.5t43 103.5t103.5 43t103.5 -43t43 -103.5
t-43 -103.5zM1221 65q-7 17 -17 30q29 65 29 79q0 2 -2 4q-69 40 -71 40l-4 -1q-23 -24 -52 -64q-12 1 -17.5 1t-17.5 -1q-7 12 -29 38.5t-27 26.5q-1 0 -17 -9q-16 -10 -33 -20q-18 -10 -20 -11q-3 -2 -3 -4q0 -14 29 -79q-9 -13 -17 -30q-85 -8 -85 -17v-80q0 -9 85 -18
q7 -15 17 -30q-29 -64 -29 -79q0 -2 3 -4q69 -40 70 -40q5 0 27 27t29 39q12 -2 17.5 -2t17.5 2q8 -12 29.5 -39t26.5 -27q1 0 71 40q2 2 2 4q0 15 -29 79q10 15 17 30q85 9 85 18v80q0 9 -85 17zM1138.5 -44q-21.5 -21 -52 -21t-52 21t-21.5 52q0 29 22 51t51.5 22
t51.5 -22t22 -51q0 -31 -21.5 -52zM1221 651q-7 16 -17 29q29 65 29 79q0 2 -2 4q-69 40 -71 40l-4 -1q-23 -24 -52 -64q-12 1 -17.5 1t-17.5 -1q-7 12 -29 38.5t-27 26.5q-1 0 -17 -9t-33 -19q-18 -11 -20 -12q-3 -2 -3 -4q0 -14 29 -79q-9 -13 -17 -29q-85 -9 -85 -18v-80
q0 -9 85 -18q7 -15 17 -30q-29 -64 -29 -78q0 -3 3 -4q69 -41 70 -41q5 0 27 27t29 39q12 -1 17.5 -1t17.5 1q8 -12 29.5 -39t26.5 -27q1 0 71 41q2 1 2 4q0 14 -29 78q10 15 17 30q85 9 85 18v80q0 9 -85 18zM1138.5 541.5q-21.5 -21.5 -52 -21.5t-52 21.5t-21.5 51.5
t22 51.5t51.5 21.5t51.5 -21.5t22 -51.5t-21.5 -51.5z" />
    <glyph glyph-name="jiantou" unicode="&#xe62f;" 
d="M592 -207l-537 506l536 508l34 -35l-500 -473l499 -471z" />
    <glyph glyph-name="aixin" unicode="&#xe63e;" 
d="M512 599q-4 3 -11 8t-30 17.5t-47 21t-58.5 13t-67 -0.5t-71.5 -25.5t-74 -56.5q-3 -3 -7.5 -8t-16 -22t-19.5 -35.5t-11.5 -47t2 -57.5t26 -65.5t55.5 -73.5l334 -333q245 244 324 329q19 22 36 48t31 63.5t15.5 73.5t-17.5 76.5t-61 74.5v0q-4 3 -11 8.5t-29 18
t-44.5 21.5t-54.5 15t-62.5 3t-65.5 -19t-65 -47zM801 498z" />
    <glyph glyph-name="pingguo1" unicode="&#xe6d6;" 
d="M644 607q22 25 33.5 61t11.5 58v23q-9 -1 -24.5 -3.5t-51 -19t-57.5 -42.5t-33.5 -61.5t-11.5 -58.5v-23q9 1 24.5 4t51.5 19.5t57 42.5v0zM751 275q0 54 27 99t72 70q-29 42 -76 67t-88 25q-34 0 -97 -21.5t-70.5 -21.5t-59 20t-92.5 20q-34 1 -69.5 -11t-72 -44.5
t-52.5 -80.5q-18 -53 -22 -114.5t11 -134t50 -138.5q83 -155 161 -155q25 0 79 19t77 19t69 -19t70 -19q35 0 71 26t64 69q16 24 33.5 59.5t27 58l9.5 22.5v6q-54 21 -88 70t-34 109v0zM751 275z" />
    <glyph glyph-name="gouwuchekong1" unicode="&#xe6c3;" 
d="M350 37q19 0 36 -7t29.5 -19.5t20 -29.5t7.5 -36t-7.5 -36t-20 -29t-29.5 -19.5t-36 -7.5q-20 0 -36.5 7.5t-29 19.5t-20 29t-7.5 36t7.5 36t20 29.5t29 19.5t36.5 7v0zM765 35q19 0 36.5 -7t30 -19.5t19.5 -29.5t7 -36t-7 -36t-19.5 -29t-30 -19.5t-36.5 -7.5t-36 7.5
t-29.5 19.5t-20 29t-7.5 36t7.5 36t20 29.5t29.5 19.5t36 7v0zM932 601q28 0 43.5 -7.5t22 -18.5t6 -23.5t-3.5 -21.5t-13 -37t-21 -61q-12 -33 -23 -66q-12 -33 -19 -52q-13 -40 -32.5 -55.5t-47.5 -15.5h-35h-64h-84h-93h-248l14 -89h504q47 0 47 -41q0 -20 -9.5 -35
t-36.5 -14h-48h-92h-116h-116h-97h-54q-19 0 -32.5 9t-22.5 23.5t-14.5 31.5t-8.5 32q-1 6 -6 28q-4 24 -11 58q-10 54 -14 76q-8 41 -16 86q-19 100 -43 224h-75q-15 0 -25 7.5t-16.5 18t-8.5 22.5t-2 22q0 19 13 32t36 12h101q20 0 32 -6t19 -14.5t10 -18.5t5 -16
q2 -8 4 -23q2 -13 4 -29l6 -38h681v0zM895 512l-623 2l34 -180l522 -1zM895 512z" />
    <glyph glyph-name="jiantou1" unicode="&#xe635;" 
d="M768 293l-460 448l-52 -51l408 -397l-408 -398l52 -50z" />
    <glyph glyph-name="gouwuche2" unicode="&#xe626;" 
d="M511 748q-91 0 -174 -35.5t-143 -95.5t-95.5 -143t-35.5 -174t35.5 -173.5t95.5 -142.5t143 -95.5t174 -35.5q158 0 282 100l49 47q56 61 86.5 138t30.5 162q0 91 -35.5 174t-95.5 143t-143 95.5t-174 35.5zM446.5 -21q-19.5 0 -33 14t-13.5 33.5t13.5 33t33 13.5
t33.5 -13.5t14 -33t-14 -33.5t-33.5 -14zM650.5 -21q-19.5 0 -33.5 14t-14 33.5t14 33t33.5 13.5t33 -13.5t13.5 -33t-13.5 -33.5t-33 -14zM791 417l-57 -177q-3 -13 -14 -21.5t-23 -4.5h-282l12 -47h255q12 0 21.5 -9.5t9.5 -22t-9.5 -22t-21.5 -9.5h-267q-4 -1 -10 0h-5
q-13 0 -22.5 9.5t-9.5 21.5l-71 278q-7 8 -7 19v6l-14 57h-33q-13 0 -22 9t-9 22t9 22t22 9h47q4 1 10 0h6q12 0 21.5 -9t9.5 -22l16 -63h394q7 2 13 0q13 0 22 -9t9 -22v-3q2 -7 0 -12z" />
    <glyph glyph-name="ditu" unicode="&#xe60a;" 
d="M513 536q-60 0 -102.5 -42t-42.5 -102t42.5 -102.5t102.5 -42.5t102.5 42.5t42.5 102.5t-42.5 102t-102.5 42zM513 300q-38 0 -65 27t-27 65t27 65t65 27t65 -27t27 -65t-27 -65t-65 -27zM513 747q-162 0 -254 -103t-72 -262q4 -30 19.5 -69t36 -76.5t50 -82t54.5 -79
t57.5 -76t51.5 -64t43.5 -51.5t26.5 -32q29 30 74.5 88.5t99.5 136t94.5 162t45.5 143.5q14 163 -75.5 264t-251.5 101zM789 379q-3 -37 -36.5 -104.5t-82 -139.5t-84 -121.5t-60.5 -82.5q-63 68 -169 220t-120 228q-13 66 5 125.5t58.5 100.5t99.5 65t126 24
q133 0 203.5 -87t59.5 -228z" />
    <glyph glyph-name="gouwuche3" unicode="&#xe683;" 
d="M187 399zM586 197h-22q-15 0 -15 -11v-16q0 -6 4.5 -10.5t10.5 -4.5h37v0v0q20 0 24 17l80 318h15q14 0 14 13v16q0 6 -4.5 10.5t-10.5 4.5v0h-32v0q-8 0 -14.5 -4t-8.5 -12zM627 369l-15 -61zM626 127q-25 0 -42.5 -18t-17.5 -43t17.5 -42.5t42.5 -17.5t43 17.5t18 42.5
t-18 43t-43 18v0zM626 127zM209 372h437q9 0 15 6t6 15t-6 15t-15 6h-437q-8 0 -14.5 -6t-6.5 -15t6.5 -15t14.5 -6v0zM254 266h355q9 0 15 6t6 14.5t-6 15t-15 6.5h-355q-8 0 -14.5 -6.5t-6.5 -15t6.5 -14.5t14.5 -6v0zM302 156h301q9 0 15 6t6 15t-6 15t-15 6h-301
q-9 0 -15 -6t-6 -15t6 -15t15 -6v0zM316 93q-15 0 -25 -10t-10 -24.5t10 -25t24.5 -10.5t25 10.5t10.5 25t-10.5 24.5t-24.5 10v0zM719 491h113q9 0 15 6t6 15t-6 15t-15 6h-113q-8 0 -14.5 -6t-6.5 -15q0 -8 8 -14.5t18 -6.5h-5z" />
    <glyph glyph-name="apple" unicode="&#xe639;" 
d="M837 124q42 -59 96 -77q-24 -72 -75 -151q-79 -119 -156 -119q-28 0 -85 19q-52 20 -91 20t-86 -21q-49 -19 -81 -19q-92 0 -181 157q-89 154 -89 304q0 138 68 226q69 88 172 88q22 0 50 -5.5t57 -20.5q32 -18 52.5 -24.5t31.5 -6.5q14 0 41.5 6t54.5 22q30 17 51.5 25
t44.5 8q71 0 129 -39q30 -20 62 -60q-47 -41 -68 -72q-40 -57 -40 -125q0 -74 42 -135zM631 602q-36 -33 -66 -44q-10 -3 -26 -5.5t-36 -4.5q1 90 47 155.5t151 90.5q2 -10 4 -14v-12q0 -37 -18 -83q-18 -45 -56 -83z" />
    <glyph glyph-name="qian" unicode="&#xe68a;" 
d="M229 675l21 14l254 -368h16l254 368l21 -14l-244 -354h272v-26h-290l-7 -11v-129h297v-25h-297v-219h-27v218h-298v27h298v127l-9 13h-289v25h272z" />
    <glyph glyph-name="gouwuche4" unicode="&#xe627;" 
d="M109 660h70h59q18 0 30.5 12.5t12.5 30t-12.5 30.5t-30.5 13h-70h-59q-17 0 -30 -13t-13 -30.5t13 -30t30 -12.5v0zM197 691q5 -21 6 -25q3 -12 8 -34.5t8 -33.5q15 -63 22 -95q4 -17 12.5 -53.5t12.5 -53.5l1 -1v-1v-1v-1l1 -1v-1v-1v-1l1 -1v-1v-1v-1l1 -1v-1v-1v-1v-1
l1 -1v-1v-1v-1l1 -1v-1v-1v-1l1 -1v-1v-1v-1l1 -1v-1v-1v-1l1 -1v-1v-1v-1v-1l1 -1v-1v-1v-1l1 -1v-1v-1v-1l1 -1v-1v-1v-1l1 -1v-1v-1v-1v-1l1 -1v-1v-1v-1l1 -1v-1v-1v-1l1 -1v-1v-1v-1l1 -1v-1v-1v-1v-1l1 -1v-1v-1v-1l1 -1v-1v-1v-1l1 -1v-1v-1v-1l1 -1v-1v-1v-1l1 -1
v-1v-1v-1v-1l1 -1v-1v-1v-1l1 -1v-1v-1v-1l1 -1v-1v-1v-1q11 -44 21 -88q7 -29 14 -57q0 -2 1 -6.5t2 -6.5q4 -17 20 -26t32.5 -4.5t25.5 19.5t5 33q-2 6 -4 13.5t-2 12.5q-3 11 -8.5 33.5t-7.5 34.5q-12 47 -23 94q-4 17 -12.5 53t-12.5 55l-25 105q-10 44 -21 88l-13 57
l-3 13q-4 17 -20.5 26t-33 4.5t-25.5 -20.5q-9 -14 -4 -33v0zM370 101h26h68h93h102h94h70h29v0q18 0 30.5 12.5t12.5 30.5t-12.5 30.5t-30.5 12.5h-26h-68h-93h-101h-94h-70h-30v0q-17 0 -30 -12.5t-13 -30.5t13 -30.5t30 -12.5v0zM269 527h31h82h114h127h123h100h59h9
q17 0 30 12.5t13 30t-13 30.5t-30 13h-32h-82h-113h-128h-123h-100h-59h-8q-18 0 -30.5 -13t-12.5 -30.5t12.5 -30t30.5 -12.5v0zM326 298h27h68h97h107h104h85h50h7q17 0 30 12.5t13 30t-13 30t-30 12.5h-27h-69h-96h-108h-103h-85h-50h-7q-17 0 -30 -12.5t-13 -30t13 -30
t30 -12.5v0zM872 581q-4 -24 -9 -47q-10 -53 -18 -96q-7 -38 -14 -77q-1 -4 -2 -9l-1 -6v-6q0 -11 5 -21q9 -15 26 -20q18 -5 33 4q17 10 20 26q4 24 9 47q10 52 18 97l14 76q1 5 2 9l2 12q-1 11 -6 21q-9 16 -26 20q-18 5 -33 -4q-17 -10 -20 -26v0zM454 -151
q-45 0 -77.5 32t-32.5 77.5t32.5 77.5t77.5 32t77.5 -32t32.5 -77.5t-32.5 -77.5t-77.5 -32zM454 -18q-10 0 -17 -7t-7 -17t7 -16.5t17 -6.5t17 6.5t7 16.5t-7 17t-17 7zM781.5 -151q-45.5 0 -77.5 32t-32 77.5t32 77.5t77.5 32t77.5 -32t32 -77.5t-32 -77.5t-77.5 -32z
M781.5 -18q-9.5 0 -16.5 -7t-7 -17t7 -16.5t16.5 -6.5t16.5 6.5t7 16.5t-7 17t-16.5 7z" />
    <glyph glyph-name="yiyuangou" unicode="&#xe620;" 
d="M510 747q91 0 174 -35t142.5 -95t95 -143t35.5 -174t-35.5 -174t-95 -143t-142.5 -95t-174 -35t-174 35t-143 95t-95.5 143t-35.5 174t35.5 174t95.5 143t143 95t174 35v0zM546 517h-34q-14 -27 -47 -56.5t-77 -50.5v-50q25 9 55.5 27t49.5 36v-334h53v428v0z" />
    <glyph glyph-name="xuanzhuan" unicode="&#xe678;" 
d="M676 60q-75 -53 -167 -52q-11 0 -23 1q-2 1 -5.5 1.5t-4.5 0.5q-12 1 -18 2q-2 1 -10 3q-11 2 -18 4q-1 1 -8 3q-12 4 -19 7l-4 2q-13 6 -22 10q0 1 -1 1q-36 20 -65 49l-1 1q-9 9 -17 18q0 1 -1.5 2.5t-1.5 2.5q-63 78 -63 177h75l-120 181l-120 -181h75q0 -116 67 -212
q0 -1 0.5 -1.5t0.5 -1.5q2 -3 14 -18q1 -1 2.5 -3t2.5 -3q9 -11 22 -24q0 -1 1 -1.5l1 -0.5q37 -38 84 -64l1 -0.5t2 -0.5q12 -7 27 -13q1 -1 3.5 -2t3.5 -1q10 -4 24 -9q10 -3 12 -4q8 -3 22 -6q12 -2 14 -3q1 0 3 -0.5t3 -0.5q4 -1 21 -3q2 0 4.5 -0.5t3.5 -0.5
q21 -2 37 -2q118 0 215 68q15 11 18.5 29t-7.5 33.5t-29.5 18.5t-33.5 -7v0zM888 293q0 117 -66 213l-0.5 1t-1.5 2q-5 7 -16 21q-1 0 -1.5 1l-0.5 1q-58 70 -140 106q-1 0 -2.5 0.5t-2.5 1.5q-11 4 -26 9q-1 0 -4.5 1.5t-5.5 1.5q-10 3 -24 7l-5 1t-8 2q-1 0 -3 0.5t-3 0.5
q-4 1 -10.5 1.5t-7.5 0.5t-5.5 1t-6.5 1q-13 1 -30 1q-1 0 -3 0.5l-2 0.5h-1v0q-118 -1 -215 -68q-15 -11 -18 -29.5t7.5 -33.5t29 -18.5t33.5 7.5q75 52 166 51q13 0 25 -1l7 -1q12 -1 20 -3q2 0 5 -1t4 -1q12 -2 19 -5q2 0 4 -1l2 -1q12 -4 22 -8q2 0 2 -1q63 -27 108 -80
v-1q65 -79 65 -181h-75l120 -180l120 180h-75z" />
    <glyph glyph-name="songlishouxuan" unicode="&#xe638;" 
d="M806 -14h-271v315h271v-315v0v0zM215 301h271v-315h-271v315v0v0zM166 446h320v-96h-320v96v0v0zM855 350h-320v96h320v-96v0v0zM308 617q41 0 84 -37t76 -85h-83q-47 0 -84 22.5t-37 60.5q0 39 44 39v0v0zM713 617q44 0 44 -39t-35.5 -61t-82.5 -22h-83q33 49 74.5 85.5
t82.5 36.5v0v0zM904 446q0 20 -14.5 34.5t-34.5 14.5h-84q36 34 36 83q0 36 -23 61.5t-71 25.5q-31 0 -63 -15t-58.5 -40t-45 -46.5t-34.5 -46.5q-16 24 -35 46.5t-45.5 47t-59 39.5t-64.5 15q-48 0 -70.5 -25.5t-22.5 -61.5q0 -49 36 -83h-85q-21 0 -35.5 -14.5
t-14.5 -34.5v-145h50v-315q0 -20 14.5 -34t34.5 -14h591q20 0 34.5 14t14.5 34v315h49v145v0v0zM904 446z" />
    <glyph glyph-name="jiantou2" unicode="&#xe629;" horiz-adv-x="1025" 
d="M763 -212v625h261l-326 353l-326 -353h262v-625h129z" />
    <glyph glyph-name="weibiaoti11" unicode="&#xe65a;" horiz-adv-x="1025" 
d="M1003 300h-155v-154q0 -9 -6 -15t-15 -6h-44q-9 0 -15 6t-6 15v154h-155q-9 0 -15 6t-6 15v44q0 9 6 15t15 6h155v154q0 8 6 14.5t15 6.5h44q9 0 15 -6.5t6 -14.5v-154h155q8 0 14.5 -6t6.5 -15v-44q0 -9 -6.5 -15t-14.5 -6zM540 675q-6 -4 -13 -4h-21q44 -53 44 -135
q0 -91 -85 -157q-29 -23 -36.5 -34t-7.5 -27q1 -8 20 -29t43 -38q57 -40 80.5 -83.5t23.5 -109.5q0 -68 -48.5 -122.5t-129.5 -78.5q-52 -15 -111 -15q-65 0 -124 15q-118 30 -158 102q-17 30 -17 63q0 35 16 69q31 66 106 106.5t166 40.5h4q-15 26 -15 54q0 14 4 29
q-96 2 -159 64t-63 153q0 65 47 122t121 82q45 16 89 16h272q16 0 20.5 -15t-7.5 -24zM141 51q0 -51 45.5 -87t112.5 -36q176 0 176 119q0 12 -3 23q-3 15 -15 29t-24.5 23t-39.5 27q-11 8 -18 13q-28 8 -58 9h-3q-69 0 -121 -36t-52 -84zM410 528q-8 60 -45.5 103.5
t-82.5 45.5h-2q-33 0 -55 -25q-35 -40 -26 -111q8 -60 46 -104.5t82 -45.5h1v0q33 0 55 25q36 41 27 112z" />
    <glyph glyph-name="jiantou3" unicode="&#xe64c;" 
d="M294 -212q-30 0 -51.5 21.5t-21.5 51.5t21 52l387 387l-387 387q-21 22 -21 52t21.5 51.5t51.5 21.5t52 -21l439 -439q21 -22 21 -52t-21 -52l-439 -439q-22 -21 -52 -21z" />
    <glyph glyph-name="huodong" unicode="&#xe615;" horiz-adv-x="1028" 
d="M476 174q15 -17 38 -17t38 17q34 32 65.5 68t69.5 88t61 111.5t23 113.5q0 107 -75.5 182t-181.5 75t-181.5 -75t-75.5 -182q0 -54 23 -113.5t61 -111.5t69.5 -88t65.5 -68v0zM514 708q63 0 108 -45t45 -109q0 -98 -109 -241q-14 -26 -44 -26t-45 26q-108 143 -108 241
q0 64 44.5 109t108.5 45v0zM975 555h-0.5h-0.5v0v0q-14 0 -26 -7l-76 -44q-18 -10 -23.5 -30.5t5 -39t31 -24t38.5 5.5v-393l-247 -126l-307 162q-14 10 -30 10q-19 0 -33 -11l-201 -108v405l51 29q18 10 23.5 30.5t-5 39t-31 24t-38.5 -5.5l-76 -44q-15 -8 -22 -24
q-4 -10 -4 -21v-518q0 -8 3 -17v0v-1q1 -3 3 -6q10 -19 30 -25.5t39 3.5l260 140l315 -165q29 -15 55 5l289 148q20 10 26 30q2 8 2 16v511q0 21 -14.5 35.5t-35.5 15.5v0zM975 555z" />
    <glyph glyph-name="jiantou4" unicode="&#xe62a;" 
d="M302 743q-5 4 -12 4q-8 0 -13.5 -5.5t-5.5 -13.5q0 -6 5 -12v0v0l107.5 -104t214.5 -208l107 -104q-428 -416 -429 -416v0v0q-5 -6 -5 -13t5.5 -12.5t13.5 -5.5q7 0 12 4l443 429q13 15 0 28q-442 428 -443 429v0v0v0z" />
    <glyph glyph-name="chevron-copy" unicode="&#xe630;" 
d="M249 362l479 -480q11 -10 25.5 -10t25 10.5t10.5 25t-10 25.5l-456 456l448 448q11 10 11 24.5t-10.5 24.5t-24.5 10t-25 -10l-465 -466q-1 0 -4 -6q-1 0 -2 -0.5t-2 -1.5q-10 -10 -10 -25t10 -25z" />
    <glyph glyph-name="erweima" unicode="&#xe758;" 
d="M548 563v-330h-74v330h74zM550 810v-166h-74v166h74zM549 129v-166h-74v166h74zM521 350h-160v76h160v-76zM250 349h-160v76h160v-76zM935 350h-160v76h160v-76zM689 295v-185h-73v185h73zM795 219h-179v76h179v-76zM936 295v-332h-320v76h242v256h78zM90 810h320v-332
h-74v251h-246v81zM410 478h-320v332h73v-251h247v-81zM90 295h320v-332h-74v251h-246v81zM410 -37h-320v332h73v-251h247v-81zM616 810h320v-332h-74v251h-246v81zM936 478h-320v332h73v-251h247v-81v0z" />
    <glyph glyph-name="yijiuhuanxin" unicode="&#xe614;" 
d="M441 484h171v-221h-171v221zM441 508v-3h3h168v3q0 8 -5.5 13t-12.5 5h-135q-8 0 -13 -5t-5 -13zM441 242v-4q0 -7 5 -12.5t13 -5.5h135q7 0 12.5 5.5t5.5 12.5v4h-168h-3zM1007.5 613.5q-16.5 94.5 -95.5 173t-173 94t-228.5 15.5t-229 -15.5t-172.5 -94t-93.5 -173
t-15.5 -229.5t15.5 -229.5t93.5 -173t172.5 -94t229 -15.5t228.5 15.5t173 94t95.5 173t16.5 229.5t-16.5 229.5zM223 292q-11 40 -11 82q0 106 64.5 189.5t164.5 110.5v34l95 -42l-95 -41v27q-91 -27 -149.5 -104t-58.5 -174q0 -36 9 -71zM594 548q16 0 27.5 -11.5
t11.5 -28.5v-3v-24v-221v-18v-4q0 -16 -11.5 -27.5t-27.5 -11.5h-135q-17 0 -28 11.5t-11 27.5v4v18v221v24v3q0 17 11 28.5t28 11.5h135zM522 63q-65 0 -123 25.5t-101 70.5l-27 -16l-12 104l83 -62l-25 -15q85 -85 205 -85q121 0 206 86l19 -11q-43 -45 -101.5 -71
t-123.5 -26zM767 208l12 104l22 -13q11 37 11 75q0 99 -60.5 176.5t-154.5 102.5v22q103 -25 169.5 -109t66.5 -192q0 -44 -12 -86l30 -18z" />
    <glyph glyph-name="weibiaoti1" unicode="&#xe60b;" 
d="M118 560h755v-69h-755v69zM118 248h755v-68h-755v68z" />
    <glyph glyph-name="chevron-copy-copy-copy-copy-copy-copy" unicode="&#xe632;" 
d="M775 406l-479 480q-11 10 -25.5 10t-25 -10.5t-10.5 -25t10 -25.5l456 -456l-448 -448q-11 -10 -11 -24.5t10.5 -24.5t24.5 -10t25 10l465 466q1 0 4 6q1 0 2 0.5t2 1.5q10 10 10 25t-10 25z" />
    <glyph glyph-name="chongzhi" unicode="&#xe606;" 
d="M512 896q-139 0 -257 -68.5t-186.5 -186.5t-68.5 -257t68.5 -257t186.5 -186.5t257 -68.5t257 68.5t186.5 186.5t68.5 257t-68.5 257t-186.5 186.5t-257 68.5zM514.5 -81q-94.5 0 -181 37t-149 99.5t-99.5 149t-37 181.5t37 181.5t99.5 149t149 99.5t181 37t181 -37
t149 -99.5t99.5 -149t37 -181.5t-37 -181.5t-99.5 -149t-149 -99.5t-181 -37zM472 637l40 25l42 -55l-22 -19l-2 -8h255v-38h-537v35l264 6zM455 550l-171 -166l29 -32q12 1 31.5 3t79 6t100.5 6t95 3.5t64 -3.5h12l28 -36l38 23l-129 151l-37 -18l53 -75q-156 0 -287 -15
l151 145zM416 376v-80q-2 -5 -4.5 -13.5t-15 -31t-30.5 -41.5t-52 -38.5t-76 -28.5l21 -32q4 1 10.5 3t24.5 9.5t35 16t38.5 23t37.5 30.5t28.5 38.5t15.5 46.5l6 98h-39zM570 376v-201q0 -3 0.5 -7t3.5 -15t8.5 -19t18.5 -15t31 -8h91q3 0 8 1t18 7.5t23.5 18t19 36.5
t9.5 59l-51 23l2.5 -10t2 -22.5t-2.5 -29.5t-15.5 -25.5t-33.5 -15.5h-63q-1 0 -3.5 0.5t-9 5t-11 11.5t-7.5 22t-2 34l1 150h-38zM417 565h140v-23h-140v23z" />
    <glyph glyph-name="iconmanage" unicode="&#xe62b;" 
d="M515 -128h466q0 33 -1.5 58t-6.5 59.5t-14 60.5t-26.5 56t-41 52.5t-59 44t-80 35t-105 21.5t-132.5 8q-92 0 -166.5 -14t-125 -36.5t-88.5 -56t-59 -67.5t-34 -75.5t-16.5 -74.5t-3.5 -71h493zM515.5 269q55.5 0 108 32.5t89.5 83t59.5 112.5t22.5 120q0 60 -15.5 109
t-48 88t-87.5 60.5t-129 21.5t-129 -21.5t-87 -60.5t-47.5 -88t-15.5 -109q0 -58 22.5 -120t59 -112.5t89.5 -83t108.5 -32.5z" />
    <glyph glyph-name="yiyuanmiaosha" unicode="&#xe776;" 
d="M628 788zM512 832q91 0 174 -35.5t143 -95.5t95.5 -143t35.5 -174t-35.5 -174t-95.5 -143t-143 -95.5t-174 -35.5t-174 35.5t-143 95.5t-95.5 143t-35.5 174t35.5 174t95.5 143t143 95.5t174 35.5v0v0zM548 602h-34q-14 -28 -47 -57.5t-77 -50.5v-50q25 9 55.5 27
t49.5 36v-334h53v429v0v0zM548 602z" />
    <glyph glyph-name="display" unicode="&#xe60f;" 
d="M960 832h-896q-20 0 -34 -14t-14 -34v-640q0 -20 14 -34t34 -14h304v-80l-64 -64v-16h416v16l-64 64v80h304q20 0 34 14t14 34v640q0 20 -14 34t-34 14zM944 224h-864v544h864v-544z" />
    <glyph glyph-name="icondayu" unicode="&#xe670;" 
d="M299 135v-50l426 258v43l-426 254v-53l389 -223z" />
    <glyph glyph-name="fanhuidingbu1" unicode="&#xe649;" 
d="M116 300h91v-232h42v232h91v42h-224v-42zM575 342h-113q-22 0 -37.5 -15.5t-15.5 -37.5v-168q0 -22 15.5 -37.5t37.5 -15.5h113q22 0 37.5 15.5t15.5 37.5v168q0 22 -15.5 37.5t-37.5 15.5v0zM585 121q0 -4 -3 -7.5t-7 -3.5h-113q-4 0 -7.5 3.5t-3.5 7.5v168q0 5 3.5 8
t7.5 3h113q4 0 7 -3t3 -8v-168v0zM892 327q-15 15 -37 15h-146v-274h43v120h103q22 0 37.5 15.5t15.5 37.5v48q0 22 -16 38v0zM865 241q0 -4 -3 -7t-7 -3h-103v69h103q4 0 7 -3t3 -8v-48v0zM316 526q185 167 190 171q8 7 15 0q2 -2 191 -172q7 -5 5.5 -13t-9.5 -8h-384
q-6 0 -9.5 7.5t1.5 14.5z" />
    <glyph glyph-name="xuanzhuan1" unicode="&#xe613;" 
d="M684 163q-79 -56 -176 -55q-11 0 -24 1q-2 0 -5.5 0.5t-4.5 0.5q-13 2 -19 3q-2 1 -11 3q-12 3 -18 5q-2 0 -5 1t-4 2q-13 4 -20 7q-1 1 -5 2q-13 6 -22 11q-1 0 -1 0.5t-1 0.5q-37 21 -68 52l-1 1q-9 9 -18 20l-1.5 1.5t-1.5 2.5q-66 83 -66 189h70q3 0 4.5 3t-0.5 5
l-117 178q-1 2 -4 2t-4 -2l-117 -178q-2 -2 -0.5 -5t4.5 -3h69q0 -124 70 -226q1 0 1 -1t1 -2q2 -4 14 -19l6 -7q9 -11 22 -25q1 0 1.5 -1t1.5 -1q39 -40 88 -68q2 -1 3 -1q12 -7 29 -14q1 -1 3.5 -2t3.5 -2q10 -4 25 -9q9 -3 13 -4q7 -2 23 -6q12 -3 15 -4q1 0 3 -0.5
t3 -0.5q4 -1 22 -3q2 0 4.5 -0.5t3.5 -0.5q22 -2 40 -2q123 0 225 72q16 12 19.5 31.5t-7.5 35.5t-30.5 19.5t-35.5 -7.5zM907 411q-1 124 -70 226l-0.5 1.5t-1.5 1.5q-5 8 -17 23l-1 1t-1 2q-60 74 -147 112q-1 0 -2.5 0.5t-2.5 1.5q-12 4 -28 10l-4 1.5t-6 1.5q-9 3 -25 7
q-13 3 -14 3t-3 0.5t-3 1.5q-3 0 -6 0.5t-7 1t-6 0.5q-1 0 -6 0.5t-7 1.5q-14 1 -31 1q-1 0 -3 0.5t-3 0.5l-0.5 -0.5l-0.5 -0.5q-124 0 -225 -72q-16 -11 -19.5 -30.5t7.5 -36t30.5 -20t35.5 8.5q78 55 174 55q14 -1 27 -2q1 0 4 -0.5t4 -0.5q12 -1 21 -3l9 -2l20 -5
q1 -1 3.5 -1.5t2.5 -1.5q13 -4 23 -8l1 -0.5l1 -0.5q67 -29 113 -86h0.5h0.5q68 -84 68 -193h-70q-3 0 -4.5 -2.5t0.5 -5.5l117 -177q1 -2 4 -2t4 2l117 177q2 3 0.5 5.5t-4.5 2.5h-69v0v0zM907 411z" />
    <glyph glyph-name="huodong1" unicode="&#xe61b;" 
d="M863 657h-30q23 40 20 75q-4 42 -45 69q-43 28 -104 13q-49 -12 -101.5 -50.5t-90.5 -89.5q-38 51 -90.5 89.5t-101.5 50.5q-61 15 -104 -13q-41 -27 -45 -69q-3 -35 20 -75h-30q-35 0 -59.5 -24.5t-24.5 -59.5v-108q0 -27 16.5 -49.5t42.5 -30.5q-5 -14 -5 -28v-324
q0 -35 24.5 -59.5t59.5 -24.5h594q35 0 59.5 24.5t24.5 59.5v324q0 15 -5 28q26 9 42.5 31t16.5 49v108q0 35 -24.5 59.5t-59.5 24.5zM809 9h-267v372h267q10 0 17 -7t7 -17v-324q0 -10 -7 -17t-17 -7zM575 657q32 37 71 63.5t72 35.5q36 9 57 -5q17 -11 18 -25
q3 -29 -35 -69h-183v0zM887 573v-108q0 -10 -7 -17t-17 -7h-321v156h321q10 0 17 -7t7 -17zM482 381v-372h-267q-10 0 -17 7t-7 17v324q0 10 7 17t17 7h267v0zM231 726q1 14 18 25q21 14 57 5q33 -8 72 -35t71 -64h-183q-12 13 -24.5 33t-10.5 36zM137 573q0 10 7 17t17 7
h321v-156h-321q-10 0 -17 7t-7 17v108v0zM137 573z" />
    <glyph glyph-name="huodong2" unicode="&#xe64e;" 
d="M512.5 135q-8.5 0 -14.5 6l-105 102q-29 25 -37 60q-7 33 5 64q10 28 32.5 44t50.5 16q25 0 50 -18q9 -6 16 -14q8 8 16 14q25 18 50 18q28 0 50.5 -15.5t33.5 -42.5q12 -31 6 -64q-8 -35 -35 -62l-104 -102q-6 -6 -14.5 -6zM444 386q-32 0 -45 -34q-8 -15 -3.5 -38.5
t24.5 -40.5q0 -1 1 -1l91 -88l90 88q20 19 24 43t-4 38q-14 33 -46 33q-12 0 -26 -10.5t-21 -24.5q-6 -11 -18 -11v0q-13 0 -19 11q-7 14 -21.5 24.5t-26.5 10.5zM824 23h-627q-21 0 -37 16q-14 16 -13 36l30 533q1 20 15.5 34.5t34.5 14.5h135q5 57 47.5 96.5t101.5 39.5
q61 0 105 -43q39 -39 43 -93h135q20 0 34.5 -14.5t15.5 -34.5l30 -533q1 -20 -13 -36q-15 -16 -37 -16zM227 616q-9 0 -9 -11l-30 -533q0 -2 2 -5q3 -3 7 -3h627q4 0 7 3t2 5l-29 533q-1 11 -10 11h-134v-32q26 -13 26 -42q0 -19 -13.5 -32.5t-33 -13.5t-33 13.5t-13.5 32.5
q0 29 26 42v32h-217v-32q26 -13 26 -42q0 -19 -13.5 -32.5t-32.5 -13.5t-32.5 13.5t-13.5 32.5q0 29 26 42v32h-135zM403 657h215q-4 37 -31 64q-32 32 -76 32q-42 0 -72.5 -28t-35.5 -68z" />
    <glyph glyph-name="xin" unicode="&#xe6b3;" 
d="M893 187zM492 558zM568 557zM527.5 20q-5.5 0 -10.5 3q-11 7 -28.5 18t-60 42.5t-82 64t-87 79.5t-83.5 92.5t-63 100t-32 104.5q-13 108 70 191q59 67 153 67q58 0 116 -28.5t107 -80.5q50 52 108 80.5t116 28.5q93 0 152 -67q84 -84 71 -192q-5 -50 -32 -104.5
t-63 -100t-84 -92t-87 -79t-82 -64t-60 -42.5t-28 -18q-5 -3 -10.5 -3zM304 743q-77 0 -124 -54l-1 -1q-70 -70 -60 -160q7 -58 47 -123.5t88 -116.5t110.5 -103.5t97.5 -77.5t65 -45q31 20 65.5 45t97.5 77t111 103t88 116.5t47 123.5q10 90 -61 161v1q-48 54 -124 54
q-54 0 -108.5 -29.5t-100.5 -82.5q-6 -7 -15 -7v0q-9 0 -14 7q-46 53 -100.5 82.5t-108.5 29.5z" />
    <glyph glyph-name="time" unicode="&#xe62d;" 
d="M486 350q16 -7 48 -24l75 -38q58 -30 107 -55q9 -4 17 -4q6 0 12 3q18 8 18 27t-18 29l-70 35q-89 46 -130 67q-6 3 -6 9v92v120q0 17 -9 26t-22 9v0q-13 0 -22 -9q-10 -10 -9 -26v-85v-35v-29v-96q0 -11 9 -16zM930 434q-6 49 -24 95q-6 15 -18.5 22t-27.5 4
q-19 -4 -28 -19q-9 -17 -1 -38q31 -84 15 -168q-24 -126 -124 -200q-114 -86 -254 -63q-130 21 -208 124q-86 114 -62 252q23 123 122 199q112 86 254 65q15 -3 46 -11q7 -2 12 -3l-6 -10q-8 -13 -12 -21q-6 -11 -2 -20q6 -8 20 -7h5l24 4q53 8 80 13q14 2 21 13q6 10 1 23
q-17 49 -37 102q-5 14 -16 14v0q-10 0 -17 -11q-10 -13 -19 -30h-1q-98 38 -198 26q-133 -16 -225 -100q-172 -156 -130 -382q28 -147 148 -238q115 -88 248 -88q45 0 91 10q207 45 293 239q42 95 30 204z" />
    <glyph glyph-name="xuangoushouji" unicode="&#xe616;" 
d="M393 235h-73v405h265v-9h21v69q0 21 -17 21h-273q-17 0 -17 -21v-538q0 -21 17 -21h77v94zM725 593h-273q-8 0 -12.5 -6.5t-4.5 -14.5v-538q0 -21 17 -21h273q9 0 13 6.5t4 14.5v538q0 6 -5.5 13.5t-11.5 7.5zM619 38h-64q-10 0 -16 6t-6 15.5t6 15.5t16 6h64q9 0 15 -6
t6 -15.5t-6 -15.5t-15 -6zM721 102h-264v410h264v-410z" />
    <glyph glyph-name="xuangoushouji1" unicode="&#xe617;" 
d="M393 235h-73v405h265v-9h21v69q0 21 -17 21h-273q-17 0 -17 -21v-538q0 -21 17 -21h77v94zM725 593h-273q-8 0 -12.5 -6.5t-4.5 -14.5v-538q0 -21 17 -21h273q9 0 13 6.5t4 14.5v538q0 6 -5.5 13.5t-11.5 7.5zM619 38h-64q-10 0 -16 6t-6 15.5t6 15.5t16 6h64q9 0 15 -6
t6 -15.5t-6 -15.5t-15 -6zM721 102h-264v410h264v-410z" />
    <glyph glyph-name="xiangshangjiantou" unicode="&#xe62e;" 
d="M669 -65v471h169l-326 427l-326 -427h169v-471h314v0z" />
    <glyph glyph-name="yijiuhuanxin1" unicode="&#xe618;" 
d="M441 484h171v-221h-171v221zM441 508v-3h3h168v3q0 8 -5.5 13t-12.5 5h-135q-8 0 -13 -5t-5 -13zM441 242v-4q0 -7 5 -12.5t13 -5.5h135q7 0 12.5 5.5t5.5 12.5v4h-168h-3zM1007.5 613.5q-16.5 94.5 -95.5 173t-173 94t-228.5 15.5t-229 -15.5t-172.5 -94t-93.5 -173
t-15.5 -229.5t15.5 -229.5t93.5 -173t172.5 -94t229 -15.5t228.5 15.5t173 94t95.5 173t16.5 229.5t-16.5 229.5zM223 292q-11 40 -11 82q0 106 64.5 189.5t164.5 110.5v34l95 -42l-95 -41v27q-91 -27 -149.5 -104t-58.5 -174q0 -36 9 -71zM594 548q16 0 27.5 -11.5
t11.5 -28.5v-3v-24v-221v-18v-4q0 -16 -11.5 -27.5t-27.5 -11.5h-135q-17 0 -28 11.5t-11 27.5v4v18v221v24v3q0 17 11 28.5t28 11.5h135zM522 63q-65 0 -123 25.5t-101 70.5l-27 -16l-12 104l83 -62l-25 -15q85 -85 205 -85q121 0 206 86l19 -11q-43 -45 -101.5 -71
t-123.5 -26zM767 208l12 104l22 -13q11 37 11 75q0 99 -60.5 176.5t-154.5 102.5v22q103 -25 169.5 -109t66.5 -192q0 -44 -12 -86l30 -18z" />
    <glyph glyph-name="shoujiqia" unicode="&#xe623;" 
d="M512 -128q-139 0 -257 68.5t-186.5 186.5t-68.5 257t68.5 257t186.5 186.5t257 68.5t257 -68.5t186.5 -186.5t68.5 -257t-68.5 -257t-186.5 -186.5t-257 -68.5zM720 652q0 22 -14.5 37t-35.5 15h-316q-21 0 -35.5 -15t-14.5 -37v-466q0 -3 103 -106h263q21 0 35.5 15
t14.5 37v520zM657 323h-43v98v9v9h-275v80h347v0v-161q0 -14 -8.5 -24.5t-20.5 -10.5zM686 537h-72v98h43q12 0 20.5 -10.5t8.5 -25.5v0v-62zM520 635h79v-98h-79v98zM433 635h72v-98h-72v98zM339 599q0 15 8.5 25.5t20.5 10.5h51v-98h-80v62zM419 323h-51q-12 0 -20.5 10.5
t-8.5 24.5v63h80v-98zM505 323h-72v98h72v-98zM599 323h-79v98h79v-98z" />
    <glyph glyph-name="songlishenqi" unicode="&#xe655;" 
d="M626 609q21 48 48 81.5t52 33.5q7 0 11 -1q34 -11 31 -37q-4 -26 -41 -50t-101 -27zM559 402h294v-437h-294v437zM269 684q-2 15 7 24t23 12q5 2 11 2q47 0 101 -115q-65 3 -102.5 27.5t-39.5 49.5zM172 402h293v-437h-293v437zM925 434v131h-157q73 43 82 110
q6 44 -18.5 78.5t-71.5 48.5q-16 4 -34 4q-30 0 -58.5 -15.5t-48.5 -37.5t-38.5 -52.5t-28 -52t-18.5 -44.5h-32q-81 201 -192 201q-17 0 -34 -6q-47 -13 -71.5 -48t-18.5 -78q9 -63 80 -108h-167v-131h826zM940 74z" />
    <glyph glyph-name="wujiaoxing2" unicode="&#xe881;" 
d="M752 -85q-20 0 -39 10l-187 103q-7 4 -15 0l-187 -103q-19 -10 -39 -10q-37 0 -62 30q-26 29 -19 70l36 218q1 10 -6 17l-152 154q-16 17 -21.5 41t1.5 47q8 23 25.5 38t41.5 19l209 32q8 1 12 9l94 198q11 23 31 36t44 13t44 -13t31 -36l94 -198q4 -8 12 -9l209 -32
q23 -4 41 -19t25 -38q8 -23 2.5 -47t-22.5 -41l-151 -155q-7 -6 -5 -17l36 -218q6 -40 -19 -70q-27 -29 -64 -29zM518.5 96q20.5 0 39.5 -10l187 -103q3 -2 7 -2q7 0 12 6q6 7 4 16l-36 218q-7 44 24 75l152 155q7 6 4 20q-3 11 -13 12l-209 32q-44 6 -63 47l-93 198
q-5 10 -15 10q-9 0 -14 -10l-94 -198q-19 -40 -63 -47l-209 -32q-10 -1 -14 -11q-4 -12 5 -21l152 -155q30 -30 23 -74l-36 -218q-2 -10 4 -17q6 -6 12 -6q4 0 7 2l188 103q18 10 38.5 10z" />
    <glyph glyph-name="zidongxuanzhuan" unicode="&#xe611;" 
d="M282 -15q-81 47 -137 121t-78.5 158.5t-11.5 176.5t58 173.5t121 137t158.5 78t176.5 11.5t173 -58q140 -81 198 -302l38 29l-169 97q-9 5 -19 2.5t-15.5 -12t-3 -19.5t12.5 -15l168 -98l53 -30l-15 59q-64 242 -222 333q-90 52 -192.5 64.5t-196 -12.5t-176 -87
t-134.5 -152t-64.5 -192.5t12.5 -196t87 -176t152 -134.5t192.5 -64.5t196 12.5t176 87t134.5 152q6 9 3 19.5t-12 15.5t-19.5 2.5t-15.5 -11.5q-47 -82 -121 -137.5t-158.5 -78t-176.5 -11.5t-173 58zM358 230q0 -21 15 -36t37 -15h205q21 0 36 15t15 36v103q0 21 -15 36
t-36 15h-205q-22 0 -37 -15t-15 -36v-103zM410 435h205q42 0 72 -30t30 -72v-103q0 -42 -30 -72t-72 -30h-205q-43 0 -73 30t-30 72v103q0 42 30 72t73 30zM410 384l-51 51h307l-51 -51v154q0 21 -15.5 36t-36.5 15h-102q-21 0 -36 -15t-15 -36v-154zM359 538q0 42 30 72
t72 30h102q43 0 73 -30t30 -72v-154h-307v154z" />
    <glyph glyph-name="xiangji" unicode="&#xe621;" 
d="M824 433q14 0 23.5 10t9.5 24t-9.5 24t-23.5 10q-15 0 -24.5 -10t-9.5 -24q-1 -14 9 -24t25 -10v0zM510 607q-104 0 -178 -74t-74 -178q0 -105 74 -179t178 -74t178.5 74.5t74.5 178.5t-74 178t-179 74v0zM510 175q-74 0 -126.5 53t-52.5 127t52.5 126.5t126.5 52.5
t127 -52.5t53 -126.5t-53 -127t-127 -53v0zM950 623h-186l-39 106q-3 12 -13 19.5t-22 7.5h-359q-26 0 -34 -24l-17 -46h-159q-9 0 -15.5 -6.5t-6.5 -15.5v0v-41h-27h-1q-16 0 -26.5 -10.5t-10.5 -26.5v-562v-1q0 -15 10.5 -25.5t26.5 -10.5h878h1q15 0 26 10.5t11 25.5v563
v0q0 15 -11 26t-26 11v0zM143 642h121l-7 -19h-114v19v0zM913 60h-806v490h175q13 0 23 7.5t13 19.5l38 106h308l40 -109q9 -24 34 -24h175v-490v0zM510 477q-51 0 -87 -36t-36 -87t36.5 -87t87 -36t87 36t36.5 87t-37 87q-36 36 -87 36v0zM510 275q-32 0 -55.5 23t-23.5 56
t23.5 56t55.5 23q34 0 57 -22q22 -24 22 -57q0 -32 -23 -55.5t-56 -23.5v0z" />
    <glyph glyph-name="maotou" unicode="&#xe719;" 
d="M869 537q-11 33 -35 48l-2 1l-2 1q-16 7 -30 7h-2q-16 -1 -32 -11q-11 -7 -18 -13q-6 -5 -9 -9l-2 -2l-2 -2q0 -1 -3 -5q-19 -21 -29.5 -32t-29.5 -26q-17 -14 -34 -19q-19 -6 -41 -6h-19h-68h-66h-19q-18 0 -35 5q-18 6 -30 12q-10 6 -26 21q-18 17 -24 24q-7 7 -24 28
q-11 14 -34 27q-15 8 -31 8q-15 0 -30 -7l-2 -1l-2 -1q-23 -16 -33 -48q-10 -28 -10 -69v-3v0v-57v-140v-8v-1v-1q3 -40 22.5 -60.5t52.5 -23.5l2 -1l1 1h3h1.5h1.5v0h1h564v0h1h2h1h3v0h2h1q34 3 53 24q19 20 21 60v1v1v8v140v57v0v3q0 42 -9 69v0zM838 456v-1v-53v-131v-7
q-2 -29 -13.5 -42t-35.5 -15v0h-2.5h-2.5h-3h-539h-2h-2.5h-2.5q-23 2 -35.5 15t-13.5 42v7v131v53v1v2q0 69 30 90q9 4 18 4q10 0 19 -4q17 -10 24 -19q18 -21 24.5 -28t24 -23.5t30.5 -23t33 -13t40 -6.5h19h63h65h18q25 0 46.5 7t40.5 22t30 26t30 32q4 4 5 7q3 3 8 7.5
t14 10t19 5.5h1q9 0 19 -4q31 -19 31 -90v-2v0zM853 465z" />
    <glyph glyph-name="pingguo-copy" unicode="&#xe602;" 
d="M644 691q22 25 33.5 61t11.5 58v23q-9 -1 -24.5 -3.5t-51 -19t-57.5 -42.5t-33.5 -61.5t-11.5 -58.5v-23q9 1 24.5 4t51.5 19.5t57 42.5v0zM751 359q0 54 27 99t72 70q-29 42 -76 67t-88 25q-34 0 -97 -21.5t-70.5 -21.5t-59 20t-92.5 20q-34 1 -69.5 -11t-72 -44.5
t-52.5 -80.5q-18 -53 -22 -114.5t11 -134t50 -138.5q83 -155 161 -155q25 0 79 19t77 19t69 -19t70 -19q35 0 71 26t64 69q16 24 33.5 59.5t26.5 58.5l10 22v6q-54 21 -88 70t-34 109v0zM751 359z" />
    <glyph glyph-name="pingguo2" unicode="&#xe610;" 
d="M837 220q42 -59 96 -77q-24 -72 -75 -151q-79 -119 -156 -119q-28 0 -85 19q-52 20 -91 20t-86 -21q-49 -19 -81 -19q-92 0 -181 157q-89 154 -89 304q0 138 68 226q69 88 172 88q22 0 50 -5.5t57 -20.5q32 -18 52.5 -24.5t31.5 -6.5q14 0 41.5 6t54.5 22q30 17 51.5 25
t44.5 8q71 0 129 -39q30 -20 62 -60q-47 -41 -68 -72q-40 -57 -40 -125q0 -74 42 -135zM631 698q-36 -33 -66 -44q-10 -3 -26 -5.5t-36 -4.5q1 90 47 155.5t151 90.5q2 -10 4 -14v-12q0 -37 -18 -83q-18 -45 -56 -83z" />
    <glyph glyph-name="pingguo" unicode="&#xe79e;" 
d="M394 -64h-3q-42 1 -83 37t-69.5 85.5t-50.5 109.5q-72 202 45 330q59 64 145 64q40 0 69 -11l68 -22l93 30q32 8 62 8q31 0 60 -9t46.5 -20.5t32 -26t19.5 -21.5t7 -11l12 -19l-22 -8q-3 -1 -8.5 -3.5t-17.5 -12.5t-21.5 -23.5t-17.5 -37.5t-8.5 -53.5t9 -54.5t22 -40
t28.5 -27t23.5 -15.5t12.5 -5.5l16 -6l-5 -17q-5 -13 -13 -33t-34 -65.5t-57 -75.5q-43 -44 -91 -44q-24 0 -56 11q-37 14 -70 19q-40 0 -78 -16q-35 -16 -65 -16v0zM378 526q-70 0 -118 -53q-102 -112 -37 -293q30 -84 76 -145t92 -62h3q22 0 51 12q45 20 92 20l5 -1
q31 -3 78 -20q26 -10 43 -10q33 0 65 33q53 54 89 146q-16 8 -31 20t-33 32.5t-28.5 51t-9.5 65.5q2 107 77 154q-48 55 -122 55q-25 0 -52 -7l-103 -33l-80 25q-26 10 -57 10v0zM494 595l-2 18v7t1 18t3.5 26.5t9.5 31t16.5 33.5t26.5 33t38 30t51.5 23.5t67.5 14.5l19 2
l1 -19q1 -10 0.5 -26t-12.5 -53.5t-36 -65.5q-57 -65 -166 -72l-18 -1v0zM689 790q-38 -6 -68 -21t-46.5 -32t-27 -37.5t-14 -35.5t-4.5 -29q79 10 121 57q34 39 39 98z" />
    <glyph glyph-name="fanhuidingbu" unicode="&#xe60d;" 
d="M237 378v-287h-91v287h-90v80h271v-80h-90zM600 129q-41 -41 -102.5 -41t-102.5 41q-18 18 -27 45t-10 44.5t-1 56t1 56t10 44.5t27 45q41 41 102.5 41t102.5 -41q18 -18 26.5 -45t9.5 -44.5t1 -56t-1 -56t-9.5 -44.5t-26.5 -45zM533 365q-12 16 -36 16t-36 -16
q-7 -10 -10 -27t-3 -63.5t3 -63.5t10 -26q13 -17 36.5 -17t35.5 17q8 9 11 26t3 63.5t-3 63.5t-11 27zM845 222h-55v-131h-91v367h146q58 0 91.5 -35t33.5 -83t-33.5 -83t-91.5 -35zM841 377h-51v-74h51q18 0 28.5 11t10.5 26t-10.5 26t-28.5 11zM388 610l110 130l109 -130
h-219z" />
    <glyph glyph-name="liangheng" unicode="&#xe628;" 
d="M967 441h-910q-24 0 -40.5 16.5t-16.5 40t16.5 40.5t40.5 17h910q24 0 40.5 -17t16.5 -40.5t-16.5 -40t-40.5 -16.5zM57 327h910q24 0 40.5 -16.5t16.5 -40t-16.5 -40.5t-40.5 -17h-910q-24 0 -40.5 17t-16.5 40.5t16.5 40t40.5 16.5z" />
    <glyph glyph-name="xuanzhuan2" unicode="&#xe631;" 
d="M507 10q-104 0 -192.5 51.5t-140 140t-51.5 192.5q0 14 9 23t22.5 9t23 -9t9.5 -23q0 -87 43 -160.5t116.5 -116.5t160.5 -43q66 0 127.5 27t106.5 76q9 9 22 9.5t23 -8.5q10 -10 10.5 -22.5t-9.5 -22.5q-54 -58 -127 -90.5t-153 -32.5zM859 362q-14 0 -23 9.5t-9 22.5
q0 87 -43 161t-116.5 116.5t-160.5 42.5q-66 0 -126.5 -26t-105.5 -74q-9 -9 -22 -9.5t-23 8.5q-9 10 -9.5 22.5t8.5 22.5q55 58 127 88.5t152 30.5q104 0 192.5 -51.5t140 -140t51.5 -192.5q-1 -13 -10.5 -22t-22.5 -9zM47 394l108 144l107 -144h-215zM966 394l-107 -143
l-108 143h215z" />
    <glyph glyph-name="f" unicode="&#xe68e;" 
d="M563 586q-17 -20 -17 -54v-20h91v-81h-91v-367h-101v367h-61v81h61v50q0 43 17 75q7 14 22 28.5t28 21.5q33 17 76 17v0q15 0 30 -2q12 -1 25 -4v-97q-12 5 -35 5q-28 0 -45 -20z" />
    <glyph glyph-name="icondayu1" unicode="&#xe60c;" 
d="M725 633v50l-426 -258v-43l426 -254v53l-389 223z" />
    <glyph glyph-name="weibiaoti-c" unicode="&#xe708;" 
d="M6 512v-54h1012v54h-1012zM6 299h1012v53h-1012v-53z" />
    <glyph glyph-name="xuangoushouji2" unicode="&#xe619;" 
d="M393 235h-73v405h265v-9h21v69q0 21 -17 21h-273q-17 0 -17 -21v-538q0 -21 17 -21h77v94zM725 593h-273q-8 0 -12.5 -6.5t-4.5 -14.5v-538q0 -21 17 -21h273q9 0 13 6.5t4 14.5v538q0 6 -5.5 13.5t-11.5 7.5zM619 38h-64q-10 0 -16 6t-6 15.5t6 15.5t16 6h64q9 0 15 -6
t6 -15.5t-6 -15.5t-15 -6zM721 102h-264v410h264v-410z" />
    <glyph glyph-name="qiu" unicode="&#xe6a1;" 
d="M511 834q-91 0 -173.5 -35.5t-143 -95.5t-96 -143t-35.5 -174t35.5 -174t96 -143t143 -95.5t173.5 -35.5t174 35.5t143 95.5t95.5 143t35.5 174t-35.5 174t-95.5 143t-143 95.5t-174 35.5zM921 405h-213q7 148 106 257q100 -109 107 -257zM530 405v391q148 -7 258 -107
q-111 -120 -118 -284h-140zM492 405h-140q-6 164 -117 284q110 100 257 107v-391zM492 368v-391q-147 7 -257 107q111 120 117 284h140zM530 368h140q7 -164 118 -284q-110 -100 -258 -107v391zM208 662q100 -109 106 -257h-212q7 148 106 257zM102 368h212
q-6 -148 -106 -257q-99 109 -106 257zM814 111q-99 109 -106 257h213q-7 -148 -107 -257z" />
    <glyph glyph-name="bird" unicode="&#xe759;" 
d="M935 651q-48 -21 -100 -27q56 34 76 96q-70 -42 -154 -48q9 28 -16.5 44.5t-66.5 16.5q-72 0 -122.5 -51t-50.5 -123q0 -20 4 -40q-106 6 -199 54t-159 128q-23 -40 -23 -87q0 -45 20.5 -83t56.5 -62q-45 2 -83 24l4 -4q0 -63 40 -111t100 -60q-22 -6 -46 -6q-17 0 -34 4
q18 -53 62.5 -86.5t100.5 -34.5q-94 -74 -215 -74v0q-22 0 -43 2q124 -78 268 -78q92 0 173 29.5t138.5 78.5t99.5 113t62 133.5t20 139.5v22q51 37 87 90zM671.5 540q-18.5 0 -31.5 13t-13 31t13 31t31.5 13t31.5 -13t13 -31t-13 -31t-31.5 -13z" />
    <glyph glyph-name="yijiuhuanxin2" unicode="&#xe61a;" 
d="M441 484h171v-221h-171v221zM441 508v-3h171v3q0 8 -5.5 13t-12.5 5h-135q-8 0 -13 -5t-5 -13zM441 242v-4q0 -7 5 -12.5t13 -5.5h135q7 0 12.5 5.5t5.5 12.5v4h-171zM1007.5 613.5q-16.5 94.5 -95.5 173t-173 94t-228.5 15.5t-229 -15.5t-172.5 -94t-93.5 -173
t-15.5 -229.5t15.5 -229.5t93.5 -173t172.5 -94t229 -15.5t228.5 15.5t173 94t95.5 173t16.5 229.5t-16.5 229.5zM223 292q-11 40 -11 82q0 106 64.5 189.5t164.5 110.5v34l95 -42l-95 -41v27q-91 -27 -149.5 -104t-58.5 -174q0 -36 9 -71zM594 548q16 0 27.5 -11.5
t11.5 -28.5v-270q0 -16 -11.5 -27.5t-27.5 -11.5h-135q-17 0 -28 11.5t-11 27.5v270q0 17 11 28.5t28 11.5h135zM522 63q-65 0 -123 25.5t-101 70.5l-27 -16l-12 104l83 -62l-25 -15q85 -85 205 -85q121 0 206 86l19 -11q-43 -45 -101.5 -71t-123.5 -26zM767 208l12 104
l22 -13q11 37 11 75q0 99 -60.5 176.5t-154.5 102.5v22q103 -25 169.5 -109t66.5 -192q0 -44 -12 -86l30 -18z" />
    <glyph glyph-name="sousuo_sousuo" unicode="&#xe600;" 
d="M873 77v0v0v0q10 -12 10 -26q0 -15 -11 -27q-11 -11 -27 -11v0q-7 0 -13 2q-9 3 -16 11v-1l-204 206q-74 -52 -165 -52q-9 0 -19 1q-18 1 -35 6q-56 3 -117 51q-41 24 -77 87q-29 49 -35 109l-1 -1q-2 16 -2 32q0 4 0 3q0 25 5 50q10 67 52 122q10 20 40 44.5t66 40.5
l-10 -3q10 7 41 18q43 16 92 16v0q20 0 38 -3q49 -6 94 -29q73 -39 113 -109l-2 7q11 -12 26 -54q20 -56 18 -113q-4 -95 -66 -171l206 -206h-1v0zM691 455v13q0 46 -18 88q-19 53 -61 91q-8 7 0 -1q-5 5 -10 9q-47 40 -108 52q-15 3 0 1q-24 3 -45 3q-15 0 -30 -2
q-2 0 -6 -1h-5q-66 -11 -116 -53q-19 -12 -39.5 -41t-32.5 -64q-1 3 -3 -3q-10 -24 -12 -69q-3 -62 23 -115q31 -69 97 -106q0 -3 12 -9.5t34 -13t44 -9.5q1 -2 11.5 -2.5t28 0t33.5 3.5q46 8 84 31q7 2 27 18.5t37 37.5l-1 -4q12 11 33 53q2 3 3 7l-14 -26q4 7 8 15v0
q25 48 26 104v-7z" />
    <glyph glyph-name="sousuo_sousuo1" unicode="&#xe62c;" 
d="M1016 -64q14 -17 14 -37q0 -23 -16 -39t-38 -16q-10 0 -19 3t-16 9l-6 5l-294 296q-106 -75 -237 -75q-13 0 -26 1q-15 1 -27 4q-92 10 -169 62q-83 53 -133 141q-24 41 -38 87q-13 46 -16 93.5t5 95.5q12 76 52 143t103 114q52 41 117 64q64 22 132 22q30 0 55 -3
q71 -10 135 -43q63 -33 111 -86q56 -58 86 -137q29 -80 25 -162q-5 -137 -94 -246l295 -296h-1v0zM754 479q4 74 -23 143q-16 42 -42 78q-26 37 -61 66t-76 48q-89 41 -185 30q-6 0 -11 -1l-7 -2q-77 -11 -141 -56q-65 -44 -103 -111q-44 -73 -48 -162t33 -165
q31 -70 89 -119q58 -50 132 -70q76 -22 153 -8q41 7 79 23q37 17 71 41q32 25 59 56q27 32 45 69q33 66 36 140z" />
    <glyph glyph-name="diqiu" unicode="&#xe7b9;" 
d="M511.5 834q-89.5 0 -171 -35t-140.5 -94t-93.5 -140.5t-34.5 -170.5t34.5 -170.5t93.5 -140.5t140.5 -93.5t171 -34.5t170.5 34.5t140 93.5t94 140.5t35 170.5t-35 170.5t-94 140.5t-140 94t-170.5 35zM549 802q1 1 3 2l7 3.5t9.5 3.5t9.5 1t8 -3t17 -5t44.5 -12
t67.5 -33l-1 -1l-3 -3t-4 -3.5t-4.5 -4t-4.5 -4t-3.5 -2.5t-2.5 -1q9 -17 15 -26l8 -11l-6 -9l6 -2q-3 1 -5.5 -3.5t-6 -10t-7.5 -6.5q-5 -1 -2 -12t2 -12q-1 -2 -1 -11t1 -19t0 -19q-1 -8 -3 -8.5t-6 3.5t-7 5q-20 5 -22 12q-4 18 0 27v4.5t-2.5 4.5t-4.5 4.5t-5 4.5l-4 4
q-2 4 -19 2t-18 -2q-8 2 -8 27q0 4 2.5 5t6.5 0.5t8 -2t9.5 -2.5t8.5 -1q6 1 9.5 9.5t4.5 16.5v8v27q-9 4 2 8q-27 6 -33 -8q-3 -5 -5.5 -9.5t-4 -8t-2.5 -9.5q0 -4 -3 -5.5t-7.5 -1t-8 1.5t-8 3t-5.5 2q-2 0 -4.5 2.5l-5.5 5.5l-6 6t-4 5l-2 2l8 19l-8 19v22zM297 654l2 3
t3.5 5.5t5 6.5t6.5 6t8 4.5t9 2t9 -2.5q11 -3 19.5 -0.5t12.5 7.5l5 5l5.5 5.5t10.5 10t12.5 10.5t5.5 2l2 -4q0 1 4 3q15 8 24 -1q2 -2 3 -6q1 -7 6.5 -13t10.5 -8l5 -3q-1 -2 -3 -5.5t-4 -12.5t-1 -15q1 -4 6.5 -13.5t1.5 -16.5q-4 -8 -12.5 -15t-9.5 -9q-2 -3 -9.5 2.5
t-14.5 14t-9 13.5q-2 8 -11 13t-18 3q-43 -11 -50 -8q-2 1 -13 3t-18.5 5.5t-3.5 7.5zM725 184q-10 -26 -29 -60.5t-30 -45.5q-7 -7 -24.5 -29.5t-25.5 -28.5q-4 -3 -13 -17t-19 -13q-12 1 -24.5 27t-8.5 37q4 12 -88 35q-2 0 -4.5 0.5t-10 5.5t-13.5 13t-12 24.5t-8 37.5
q-2 19 -3 30q-57 25 -88 18q-20 -5 -41 4.5t-29 10.5l-50 46l-47 59q-30 42 -25 51q5 7 7 21.5t3 30t2 17.5q0 5 -6.5 39.5t-6 38t-2.5 13t-6 17.5l-3 8q30 64 35 64q1 0 15 -27.5t25 -28.5q15 -1 41 1.5t31 8.5q2 1 4.5 4.5t4 5t4 3.5t5 3t4.5 1t5.5 1t7 1t9.5 -3
q28 -13 37 -26q2 -2 2.5 -10.5t6 -13.5t20.5 -5q8 0 16 0.5t10.5 1t5.5 -1t3.5 -4.5t2.5 -10q3 -13 4.5 -28.5t0 -30.5t-8.5 -16q-11 -3 -32.5 -29.5t-19.5 -37.5q7 -33 -3 -54q-5 -12 -11.5 -15.5t-23.5 -2.5q-7 0 -17 2.5t-15.5 3t-11 -1.5t-7.5 -9q-3 -9 -5.5 -18
t-4 -19.5t1.5 -16t11 -4.5q35 11 48 0q5 -5 29 -16t44 -20l21 -10q3 4 8.5 9t24.5 16t39.5 16.5t52 3.5t63.5 -16l20 -13l31 7q5 2 12.5 4t22.5 4.5t21 0.5l15 -3v7v0q12 -34 0 -68zM912 367q-10 14 -10 29q0 7 -5.5 15t-5.5 18q0 11 -10.5 16t-13.5 9q-6 6 -8.5 5t-7 -5.5
t-7.5 -5.5t-4.5 -4.5t-4 -11.5t-5.5 -14q-5 -10 -17.5 -17t-17.5 -4q-5 2 -18 13.5t-14 15.5q0 1 -16.5 17.5t-16.5 20.5q2 13 -15 56q-3 7 -3 26.5t2 36.5l1 16q-3 1 9 9q7 4 28 15q38 22 38 26q-2 1 -4.5 5t-4.5 9t-3.5 11t-3 11.5t-2 10.5t-1 8l-0.5 3l47 -24
q20 -11 46.5 -64.5t42.5 -101.5l16 -48v-55z" />
    <glyph glyph-name="sousuo-sousuo" unicode="&#xe601;" 
d="M717 682q-69 69 -160.5 93t-183 0t-160 -92.5t-92.5 -160t0 -183t93 -160.5q49 -49 114 -76.5t137 -27.5t137 27.5t114.5 76.5t77 114t27.5 137.5t-27.5 137.5t-76.5 114zM136 102q-64 64 -100 149t-36 179.5t37 181t99 148.5t148 99t181 37t181 -37t148.5 -99t99 -148.5
t36.5 -181t-36 -179.5t-100 -149.5t-149 -100t-179.5 -35.5t-179.5 35.5t-150 100.5v0zM1005 -109q-18 -19 -44.5 -19t-45.5 19l-89 90q-19 18 -19 44.5t18.5 45t45 18.5t44.5 -19l90 -89q19 -19 19 -45.5t-19 -44.5v0z" />
    <glyph glyph-name="SEO" unicode="&#xe607;" horiz-adv-x="1589" 
d="M1262 896h-1024q-40 0 -68 -28t-28 -68v-640q0 -40 28 -68t68 -28h480v-128h-224q-13 0 -22.5 -9.5t-9.5 -22.5t9.5 -22.5t22.5 -9.5h512q13 0 22.5 9.5t9.5 22.5t-9.5 22.5t-22.5 9.5h-224v128h480q40 0 68 28t28 68v640q0 40 -28 68t-68 28zM1294 160q0 -13 -9.5 -22.5
t-22.5 -9.5h-1024q-13 0 -22.5 9.5t-9.5 22.5v640q0 13 9.5 22.5t22.5 9.5h1024q13 0 22.5 -9.5t9.5 -22.5v-640zM453.5 293q17.5 0 30 14t12.5 33q0 4 -3 13q144 129 192 171q12 -9 24 -9q10 0 20 6q87 -82 109 -103l-0.5 -3t-0.5 -5q0 -19 12 -33t29.5 -14t30 14t12.5 33
q0 4 -2 13l108 109q10 -5 20 -5q17 0 29.5 13.5t12.5 33t-12.5 33t-30 13.5t-29.5 -13.5t-12 -33.5q0 -8 3 -17q-18 -18 -61.5 -62t-45.5 -45q-11 8 -22 8q-14 0 -26 -11q-68 65 -105 99q3 9 3 16q0 20 -12 33.5t-29.5 13.5t-30 -13.5t-12.5 -33.5q0 -7 3 -16l-193 -167
q-12 9 -23 9q-18 0 -30 -13.5t-12 -33t12 -33.5t29.5 -14z" />
    <glyph glyph-name="songli" unicode="&#xe61c;" 
d="M480 638h63v-699h-63v699zM893 415h-763q-26 0 -45 -18.5t-19 -44.5v-413q0 -27 19 -45.5t45 -18.5h763q26 0 45 18.5t19 45.5v413q0 26 -18.5 44.5t-45.5 18.5zM130 -62v414h763v-414h-763zM957 638h-890q-27 0 -45.5 -18.5t-18.5 -45.5v-159q0 -26 18.5 -44.5
t45.5 -18.5h890q26 0 44.5 18.5t18.5 44.5v159q0 27 -18.5 45.5t-44.5 18.5zM957 415h-891v159h1h890v-159zM811 883q-44 0 -88.5 -21t-82 -56t-64.5 -66.5t-50 -66.5l-67 -100h242q60 0 113.5 21t89.5 65t36 102q0 57 -34.5 89.5t-94.5 32.5zM701 637h-123q22 32 46.5 61.5
t55 58t65 46t66.5 17.5q65 0 65 -59q0 -57 -53 -90.5t-122 -33.5zM213 883q-66 0 -97.5 -35.5t-31.5 -85.5q0 -58 36.5 -102.5t90.5 -65.5t115 -21h243l-67 100q-16 23 -34 46t-48 54.5t-60.5 54.5t-69.5 39t-77 16zM326 637q-69 0 -123.5 34t-54.5 91q0 30 15.5 44t49.5 14
q42 0 90 -31.5t82 -69.5t64 -82h-123z" />
    <glyph glyph-name="fanhuidingbu2" unicode="&#xe612;" 
d="M554 323h-79q-15 0 -25.5 -10.5t-10.5 -24.5v-147q0 -15 10.5 -25.5t25.5 -10.5h79q15 0 25 10.5t10 25.5v0v147v0q0 14 -10 24.5t-25 10.5zM835 317h-107v-93h107q8 0 14.5 5t6.5 13v56q0 8 -6.5 13.5t-14.5 5.5zM512 865q-98 0 -187 -38t-153.5 -102.5t-102.5 -153.5
t-38 -187t38 -187t102.5 -153.5t153.5 -102.5t187 -38t187 38t153.5 102.5t102.5 153.5t38 187t-38 187t-102.5 153.5t-153.5 102.5t-187 38zM311 543l184 182q1 2 2.5 4t7 5t10.5 3.5t13 -3.5t15 -15l187 -187q1 -1 1.5 -2.5t1 -5.5t0 -7.5t-4.5 -7.5t-12 -7t-20 10
l-179 180l-176 -174q-2 -2 -4.5 -4t-10.5 -4t-15 6q-11 10 0 27zM343 323h-88v-246h-38v246h-89v40h215v-40zM628 116q0 -20 -15.5 -34t-37.5 -14h-120q-23 0 -38.5 14t-15.5 34v197q0 19 15.5 33t38.5 14h120q22 0 37.5 -14t15.5 -33v-197zM861 187h-135v-108h-39v274h39v0
h135q15 0 25 -9.5t10 -23.5v-100q0 -13 -10 -23t-25 -10z" />
    <glyph glyph-name="gouwudai" unicode="&#xe60e;" 
d="M863 -123h-669q-21 0 -35 14t-14 35v649q0 20 14 34.5t35 14.5h669q20 0 34.5 -14.5t14.5 -34.5v-649q0 -21 -14.5 -35t-34.5 -14zM194 576l-1 -650l670 -1v1v649zM277 597l-50 5q12 124 99.5 207.5t206.5 83.5q115 0 202.5 -80.5t102.5 -200.5l-49 -6q-13 101 -86 169
t-170 68q-99 0 -172.5 -70.5t-83.5 -175.5z" />
    <glyph glyph-name="shichang" unicode="&#xe622;" 
d="M859 610l94 -674h-882l94 674h694v0zM896 674h-768q-18 0 -21 -22l-107 -759q0 -8 6.5 -14.5t14.5 -6.5h982v0q8 0 14.5 6.5t6.5 14.5l-107 759q-3 22 -21 22v0zM512 832q44 0 75.5 -31.5t31.5 -75.5t-31.5 -75t-75.5 -31t-75.5 31t-31.5 75t31.5 75.5t75.5 31.5z
M512 896v0q-71 0 -121 -50t-50 -120.5t50 -120.5t121 -50v0q71 0 121 50t50 120.5t-50 120.5t-121 50zM744 68h-464q-13 0 -22.5 9t-9.5 22.5t9.5 23t22.5 9.5h464q13 0 22.5 -9.5t9.5 -23t-9.5 -22.5t-22.5 -9z" />
  </font>
</defs>
</svg>
